<svg id="visual" viewBox="0 0 960 540" width="960" height="540" xmlns="http://www.w3.org/2000/svg" xmlns:xlink="http://www.w3.org/1999/xlink" version="1.1"><rect x="0" y="0" width="960" height="540" fill="#002B5B"></rect><path d="M0 371L22.8 386C45.7 401 91.3 431 137 445.2C182.7 459.3 228.3 457.7 274 446.3C319.7 435 365.3 414 411.2 415.2C457 416.3 503 439.7 548.8 443.5C594.7 447.3 640.3 431.7 686 430C731.7 428.3 777.3 440.7 823 449C868.7 457.3 914.3 461.7 937.2 463.8L960 466L960 541L937.2 541C914.3 541 868.7 541 823 541C777.3 541 731.7 541 686 541C640.3 541 594.7 541 548.8 541C503 541 457 541 411.2 541C365.3 541 319.7 541 274 541C228.3 541 182.7 541 137 541C91.3 541 45.7 541 22.8 541L0 541Z" fill="#8FE3CF" stroke-linecap="round" stroke-linejoin="miter"></path></svg>