<svg id="visual" viewBox="0 0 960 540" width="960" height="540" xmlns="http://www.w3.org/2000/svg" xmlns:xlink="http://www.w3.org/1999/xlink" version="1.1"><g stroke-width="1" stroke-linejoin="bevel"><path d="M446.7 280L394.7 368L537.3 304Z" fill="#0048a0" stroke="#0048a0"></path><path d="M563.3 475L572.3 322L537.3 304Z" fill="#00101c" stroke="#00101c"></path><path d="M394.7 368L563.3 475L537.3 304Z" fill="#001b30" stroke="#001b30"></path><path d="M396.7 463L563.3 475L394.7 368Z" fill="#002545" stroke="#002545"></path><path d="M631 391L615 296L572.3 322Z" fill="#0048a0" stroke="#0048a0"></path><path d="M572.3 322L615 296L537.3 304Z" fill="#001b30" stroke="#001b30"></path><path d="M449.7 146L357 200L446.7 280Z" fill="#004089" stroke="#004089"></path><path d="M563.3 475L631 391L572.3 322Z" fill="#0066ff" stroke="#0066ff"></path><path d="M288 286L304 344L394.7 368Z" fill="#005fe7" stroke="#005fe7"></path><path d="M394.7 368L298 419L396.7 463Z" fill="#0050b7" stroke="#0050b7"></path><path d="M396.7 463L495.3 540L563.3 475Z" fill="#0048a0" stroke="#0048a0"></path><path d="M463.7 540L495.3 540L396.7 463Z" fill="#002e5c" stroke="#002e5c"></path><path d="M304 344L298 419L394.7 368Z" fill="#0058cf" stroke="#0058cf"></path><path d="M396.7 463L354 540L463.7 540Z" fill="#001b30" stroke="#001b30"></path><path d="M449.7 146L446.7 280L563.3 161Z" fill="#0048a0" stroke="#0048a0"></path><path d="M446.7 280L288 286L394.7 368Z" fill="#002545" stroke="#002545"></path><path d="M357 200L288 286L446.7 280Z" fill="#001b30" stroke="#001b30"></path><path d="M304 344L182.3 342L298 419Z" fill="#00101c" stroke="#00101c"></path><path d="M563.3 161L446.7 280L537.3 304Z" fill="#0058cf" stroke="#0058cf"></path><path d="M615 296L563.3 161L537.3 304Z" fill="#003872" stroke="#003872"></path><path d="M615 540L661 469L563.3 475Z" fill="#0066ff" stroke="#0066ff"></path><path d="M563.3 475L661 469L631 391Z" fill="#005fe7" stroke="#005fe7"></path><path d="M711.7 195L649 186L615 296Z" fill="#001b30" stroke="#001b30"></path><path d="M298 419L354 540L396.7 463Z" fill="#003872" stroke="#003872"></path><path d="M495.3 540L615 540L563.3 475Z" fill="#005fe7" stroke="#005fe7"></path><path d="M711.7 195L615 296L783.7 241Z" fill="#005fe7" stroke="#005fe7"></path><path d="M615 296L649 186L563.3 161Z" fill="#003872" stroke="#003872"></path><path d="M201.3 174L216.3 293L288 286Z" fill="#005fe7" stroke="#005fe7"></path><path d="M288 286L216.3 293L304 344Z" fill="#005fe7" stroke="#005fe7"></path><path d="M298 419L248.3 540L354 540Z" fill="#0050b7" stroke="#0050b7"></path><path d="M512.3 51L464.7 88L563.3 161Z" fill="#002e5c" stroke="#002e5c"></path><path d="M563.3 161L464.7 88L449.7 146Z" fill="#0066ff" stroke="#0066ff"></path><path d="M449.7 146L315 116L357 200Z" fill="#0048a0" stroke="#0048a0"></path><path d="M357 200L201.3 174L288 286Z" fill="#003872" stroke="#003872"></path><path d="M779.7 350L615 296L631 391Z" fill="#001b30" stroke="#001b30"></path><path d="M669 77L512.3 51L563.3 161Z" fill="#005fe7" stroke="#005fe7"></path><path d="M464.7 88L315 116L449.7 146Z" fill="#0058cf" stroke="#0058cf"></path><path d="M177.3 442L248.3 540L298 419Z" fill="#00101c" stroke="#00101c"></path><path d="M88.7 293L182.3 342L216.3 293Z" fill="#0050b7" stroke="#0050b7"></path><path d="M216.3 293L182.3 342L304 344Z" fill="#00101c" stroke="#00101c"></path><path d="M774.7 413L631 391L661 469Z" fill="#002545" stroke="#002545"></path><path d="M774.7 413L779.7 350L631 391Z" fill="#002545" stroke="#002545"></path><path d="M726.7 540L774.7 413L661 469Z" fill="#00101c" stroke="#00101c"></path><path d="M669 77L563.3 161L649 186Z" fill="#002e5c" stroke="#002e5c"></path><path d="M464.7 88L387.7 0L315 116Z" fill="#005fe7" stroke="#005fe7"></path><path d="M182.3 342L177.3 442L298 419Z" fill="#00101c" stroke="#00101c"></path><path d="M615 540L726.7 540L661 469Z" fill="#003872" stroke="#003872"></path><path d="M315 116L201.3 174L357 200Z" fill="#0050b7" stroke="#0050b7"></path><path d="M779.7 350L783.7 241L615 296Z" fill="#0050b7" stroke="#0050b7"></path><path d="M711.7 195L669 77L649 186Z" fill="#003872" stroke="#003872"></path><path d="M314 0L230.3 123L315 116Z" fill="#00101c" stroke="#00101c"></path><path d="M315 116L230.3 123L201.3 174Z" fill="#005fe7" stroke="#005fe7"></path><path d="M758.7 78L669 77L711.7 195Z" fill="#0048a0" stroke="#0048a0"></path><path d="M639 0L517.3 0L512.3 51Z" fill="#003872" stroke="#003872"></path><path d="M512.3 51L387.7 0L464.7 88Z" fill="#0066ff" stroke="#0066ff"></path><path d="M517.3 0L387.7 0L512.3 51Z" fill="#0058cf" stroke="#0058cf"></path><path d="M854.3 202L758.7 78L711.7 195Z" fill="#001b30" stroke="#001b30"></path><path d="M779.7 350L834.3 239L783.7 241Z" fill="#0066ff" stroke="#0066ff"></path><path d="M860.3 336L834.3 239L779.7 350Z" fill="#003872" stroke="#003872"></path><path d="M889.3 482L860.3 336L774.7 413Z" fill="#0066ff" stroke="#0066ff"></path><path d="M774.7 413L860.3 336L779.7 350Z" fill="#005fe7" stroke="#005fe7"></path><path d="M387.7 0L314 0L315 116Z" fill="#0048a0" stroke="#0048a0"></path><path d="M79.7 214L216.3 293L201.3 174Z" fill="#00101c" stroke="#00101c"></path><path d="M79.7 214L88.7 293L216.3 293Z" fill="#00101c" stroke="#00101c"></path><path d="M182.3 342L80.7 353L177.3 442Z" fill="#0058cf" stroke="#0058cf"></path><path d="M79.7 214L201.3 174L132.7 73Z" fill="#0066ff" stroke="#0066ff"></path><path d="M669 77L639 0L512.3 51Z" fill="#002e5c" stroke="#002e5c"></path><path d="M782.7 0L639 0L669 77Z" fill="#001b30" stroke="#001b30"></path><path d="M88.7 293L80.7 353L182.3 342Z" fill="#0058cf" stroke="#0058cf"></path><path d="M177.3 442L80.7 540L248.3 540Z" fill="#001b30" stroke="#001b30"></path><path d="M854.3 202L711.7 195L783.7 241Z" fill="#001b30" stroke="#001b30"></path><path d="M80.7 353L79.7 438L177.3 442Z" fill="#005fe7" stroke="#005fe7"></path><path d="M960 277L854.3 202L834.3 239Z" fill="#005fe7" stroke="#005fe7"></path><path d="M834.3 239L854.3 202L783.7 241Z" fill="#002545" stroke="#002545"></path><path d="M726.7 540L851.3 540L774.7 413Z" fill="#0058cf" stroke="#0058cf"></path><path d="M0 270L0 370L80.7 353Z" fill="#001b30" stroke="#001b30"></path><path d="M80.7 353L0 370L79.7 438Z" fill="#0050b7" stroke="#0050b7"></path><path d="M132.7 73L201.3 174L230.3 123Z" fill="#005fe7" stroke="#005fe7"></path><path d="M851.3 540L889.3 482L774.7 413Z" fill="#0066ff" stroke="#0066ff"></path><path d="M860.3 336L960 277L834.3 239Z" fill="#005fe7" stroke="#005fe7"></path><path d="M79.7 438L80.7 540L177.3 442Z" fill="#005fe7" stroke="#005fe7"></path><path d="M207.3 0L132.7 73L230.3 123Z" fill="#0066ff" stroke="#0066ff"></path><path d="M314 0L207.3 0L230.3 123Z" fill="#00101c" stroke="#00101c"></path><path d="M854.3 202L835.3 68L758.7 78Z" fill="#0058cf" stroke="#0058cf"></path><path d="M758.7 78L782.7 0L669 77Z" fill="#002e5c" stroke="#002e5c"></path><path d="M835.3 68L782.7 0L758.7 78Z" fill="#0048a0" stroke="#0048a0"></path><path d="M0 270L80.7 353L88.7 293Z" fill="#002545" stroke="#002545"></path><path d="M79.7 438L0 540L80.7 540Z" fill="#0050b7" stroke="#0050b7"></path><path d="M0 270L88.7 293L79.7 214Z" fill="#00101c" stroke="#00101c"></path><path d="M0 370L0 428L79.7 438Z" fill="#0050b7" stroke="#0050b7"></path><path d="M0 185L0 270L79.7 214Z" fill="#003872" stroke="#003872"></path><path d="M960 432L960 327L860.3 336Z" fill="#0058cf" stroke="#0058cf"></path><path d="M854.3 202L960 101L835.3 68Z" fill="#00101c" stroke="#00101c"></path><path d="M889.3 482L960 432L860.3 336Z" fill="#0048a0" stroke="#0048a0"></path><path d="M960 540L960 432L889.3 482Z" fill="#0066ff" stroke="#0066ff"></path><path d="M960 327L960 277L860.3 336Z" fill="#00101c" stroke="#00101c"></path><path d="M207.3 0L119.7 0L132.7 73Z" fill="#0066ff" stroke="#0066ff"></path><path d="M132.7 73L0 185L79.7 214Z" fill="#0050b7" stroke="#0050b7"></path><path d="M0 54L0 185L132.7 73Z" fill="#004089" stroke="#004089"></path><path d="M0 428L0 540L79.7 438Z" fill="#0058cf" stroke="#0058cf"></path><path d="M851.3 540L960 540L889.3 482Z" fill="#002545" stroke="#002545"></path><path d="M960 277L960 164L854.3 202Z" fill="#0048a0" stroke="#0048a0"></path><path d="M835.3 68L875.3 0L782.7 0Z" fill="#002545" stroke="#002545"></path><path d="M960 101L875.3 0L835.3 68Z" fill="#002e5c" stroke="#002e5c"></path><path d="M960 164L960 101L854.3 202Z" fill="#0050b7" stroke="#0050b7"></path><path d="M119.7 0L0 54L132.7 73Z" fill="#0048a0" stroke="#0048a0"></path><path d="M119.7 0L0 0L0 54Z" fill="#001b30" stroke="#001b30"></path><path d="M960 101L960 0L875.3 0Z" fill="#0066ff" stroke="#0066ff"></path></g></svg>