<svg id="visual" viewBox="0 0 900 1400" width="900" height="1400" xmlns="http://www.w3.org/2000/svg" xmlns:xlink="http://www.w3.org/1999/xlink" version="1.1"><g stroke-width="1" stroke-linejoin="bevel"><path d="M439 788L447 595L243 797Z" fill="#2b4865" stroke="#2b4865"></path><path d="M447 595L229 587L243 797Z" fill="#275e79" stroke="#275e79"></path><path d="M445 380L208 418L229 587Z" fill="#275e79" stroke="#275e79"></path><path d="M0 817L219 989L243 797Z" fill="#295673" stroke="#295673"></path><path d="M0 609L243 797L229 587Z" fill="#29536f" stroke="#29536f"></path><path d="M243 797L219 989L439 788Z" fill="#2b4c69" stroke="#2b4c69"></path><path d="M447 595L445 380L229 587Z" fill="#275e79" stroke="#275e79"></path><path d="M208 418L0 609L229 587Z" fill="#295673" stroke="#295673"></path><path d="M219 989L465 1010L439 788Z" fill="#2b4865" stroke="#2b4865"></path><path d="M439 788L681 601L447 595Z" fill="#285a76" stroke="#285a76"></path><path d="M447 595L672 391L445 380Z" fill="#2b4c69" stroke="#2b4c69"></path><path d="M677 819L681 601L439 788Z" fill="#27627c" stroke="#27627c"></path><path d="M0 609L0 817L243 797Z" fill="#295673" stroke="#295673"></path><path d="M465 1010L677 819L439 788Z" fill="#275e79" stroke="#275e79"></path><path d="M208 418L0 418L0 609Z" fill="#27627c" stroke="#27627c"></path><path d="M212 204L0 418L208 418Z" fill="#29536f" stroke="#29536f"></path><path d="M681 601L672 391L447 595Z" fill="#26657f" stroke="#26657f"></path><path d="M465 1010L668 1007L677 819Z" fill="#285a76" stroke="#285a76"></path><path d="M0 817L0 1019L219 989Z" fill="#275e79" stroke="#275e79"></path><path d="M219 989L447 1180L465 1010Z" fill="#285a76" stroke="#285a76"></path><path d="M465 1010L447 1180L668 1007Z" fill="#2b4865" stroke="#2b4865"></path><path d="M661 199L453 211L445 380Z" fill="#2b4865" stroke="#2b4865"></path><path d="M445 380L212 204L208 418Z" fill="#2b4865" stroke="#2b4865"></path><path d="M453 211L212 204L445 380Z" fill="#295673" stroke="#295673"></path><path d="M239 1209L447 1180L219 989Z" fill="#2a4f6c" stroke="#2a4f6c"></path><path d="M0 1180L239 1209L219 989Z" fill="#2b4865" stroke="#2b4865"></path><path d="M900 811L900 603L681 601Z" fill="#2b4c69" stroke="#2b4c69"></path><path d="M681 601L900 411L672 391Z" fill="#2b4c69" stroke="#2b4c69"></path><path d="M900 811L681 601L677 819Z" fill="#295673" stroke="#295673"></path><path d="M900 1011L900 811L677 819Z" fill="#275e79" stroke="#275e79"></path><path d="M672 391L661 199L445 380Z" fill="#275e79" stroke="#275e79"></path><path d="M453 211L462 0L212 204Z" fill="#27627c" stroke="#27627c"></path><path d="M900 214L661 199L672 391Z" fill="#27627c" stroke="#27627c"></path><path d="M0 1019L0 1180L219 989Z" fill="#285a76" stroke="#285a76"></path><path d="M209 0L0 192L212 204Z" fill="#256982" stroke="#256982"></path><path d="M212 204L0 192L0 418Z" fill="#275e79" stroke="#275e79"></path><path d="M447 1180L687 1206L668 1007Z" fill="#2b4865" stroke="#2b4865"></path><path d="M668 1007L900 1011L677 819Z" fill="#2b4865" stroke="#2b4865"></path><path d="M433 1400L687 1206L447 1180Z" fill="#256d85" stroke="#256d85"></path><path d="M900 603L900 411L681 601Z" fill="#275e79" stroke="#275e79"></path><path d="M687 1206L900 1011L668 1007Z" fill="#295673" stroke="#295673"></path><path d="M681 0L462 0L661 199Z" fill="#26657f" stroke="#26657f"></path><path d="M661 199L462 0L453 211Z" fill="#26657f" stroke="#26657f"></path><path d="M462 0L209 0L212 204Z" fill="#295673" stroke="#295673"></path><path d="M207 1400L433 1400L239 1209Z" fill="#295673" stroke="#295673"></path><path d="M239 1209L433 1400L447 1180Z" fill="#256d85" stroke="#256d85"></path><path d="M0 1180L207 1400L239 1209Z" fill="#285a76" stroke="#285a76"></path><path d="M900 411L900 214L672 391Z" fill="#256d85" stroke="#256d85"></path><path d="M900 1400L900 1201L687 1206Z" fill="#2b4865" stroke="#2b4865"></path><path d="M687 1206L900 1201L900 1011Z" fill="#2b4c69" stroke="#2b4c69"></path><path d="M209 0L0 0L0 192Z" fill="#2b4c69" stroke="#2b4c69"></path><path d="M900 214L681 0L661 199Z" fill="#2b4865" stroke="#2b4865"></path><path d="M0 1180L0 1400L207 1400Z" fill="#26657f" stroke="#26657f"></path><path d="M433 1400L686 1400L687 1206Z" fill="#256d85" stroke="#256d85"></path><path d="M900 214L900 0L681 0Z" fill="#29536f" stroke="#29536f"></path><path d="M686 1400L900 1400L687 1206Z" fill="#256d85" stroke="#256d85"></path></g></svg>