<svg id="visual" viewBox="0 0 960 1400" width="960" height="1400" xmlns="http://www.w3.org/2000/svg" xmlns:xlink="http://www.w3.org/1999/xlink" version="1.1"><g stroke-width="1" stroke-linejoin="bevel"><path d="M430.7 717L396.7 620L359 692Z" fill="#0048a0" stroke="#0048a0"></path><path d="M396.7 620L335 585L359 692Z" fill="#0050b7" stroke="#0050b7"></path><path d="M430.7 717L493.3 581L396.7 620Z" fill="#00101c" stroke="#00101c"></path><path d="M396.7 620L455.7 526L335 585Z" fill="#00101c" stroke="#00101c"></path><path d="M292 805L455.7 801L430.7 717Z" fill="#0050b7" stroke="#0050b7"></path><path d="M430.7 717L555.3 722L493.3 581Z" fill="#002545" stroke="#002545"></path><path d="M493.3 581L455.7 526L396.7 620Z" fill="#0048a0" stroke="#0048a0"></path><path d="M455.7 801L555.3 722L430.7 717Z" fill="#002545" stroke="#002545"></path><path d="M208.3 724L292 805L359 692Z" fill="#0066ff" stroke="#0066ff"></path><path d="M359 692L292 805L430.7 717Z" fill="#004089" stroke="#004089"></path><path d="M455.7 801L533.3 799L555.3 722Z" fill="#0066ff" stroke="#0066ff"></path><path d="M455.7 526L307 504L335 585Z" fill="#0048a0" stroke="#0048a0"></path><path d="M210.3 607L208.3 724L359 692Z" fill="#003872" stroke="#003872"></path><path d="M210.3 607L359 692L335 585Z" fill="#001b30" stroke="#001b30"></path><path d="M307 504L210.3 607L335 585Z" fill="#002545" stroke="#002545"></path><path d="M208.3 724L223.3 786L292 805Z" fill="#00101c" stroke="#00101c"></path><path d="M327 935L441.7 907L292 805Z" fill="#0066ff" stroke="#0066ff"></path><path d="M292 805L441.7 907L455.7 801Z" fill="#002545" stroke="#002545"></path><path d="M455.7 801L508.3 893L533.3 799Z" fill="#004089" stroke="#004089"></path><path d="M493.3 581L565.3 491L455.7 526Z" fill="#004089" stroke="#004089"></path><path d="M455.7 526L442.7 417L307 504Z" fill="#001b30" stroke="#001b30"></path><path d="M649 623L565.3 491L493.3 581Z" fill="#0048a0" stroke="#0048a0"></path><path d="M441.7 907L508.3 893L455.7 801Z" fill="#002545" stroke="#002545"></path><path d="M671 718L649 623L555.3 722Z" fill="#001b30" stroke="#001b30"></path><path d="M640 763L555.3 722L533.3 799Z" fill="#00101c" stroke="#00101c"></path><path d="M555.3 722L649 623L493.3 581Z" fill="#0050b7" stroke="#0050b7"></path><path d="M609 928L640 763L533.3 799Z" fill="#005fe7" stroke="#005fe7"></path><path d="M493.3 401L442.7 417L455.7 526Z" fill="#002e5c" stroke="#002e5c"></path><path d="M640 763L671 718L555.3 722Z" fill="#0050b7" stroke="#0050b7"></path><path d="M210.3 607L135.7 715L208.3 724Z" fill="#0058cf" stroke="#0058cf"></path><path d="M208.3 724L126.7 764L223.3 786Z" fill="#003872" stroke="#003872"></path><path d="M216.3 901L292 805L223.3 786Z" fill="#0050b7" stroke="#0050b7"></path><path d="M216.3 901L327 935L292 805Z" fill="#002e5c" stroke="#002e5c"></path><path d="M523.3 1010L609 928L508.3 893Z" fill="#00101c" stroke="#00101c"></path><path d="M298 407L224.3 463L307 504Z" fill="#0050b7" stroke="#0050b7"></path><path d="M307 504L224.3 463L210.3 607Z" fill="#0058cf" stroke="#0058cf"></path><path d="M210.3 607L98.7 561L135.7 715Z" fill="#002545" stroke="#002545"></path><path d="M565.3 491L493.3 401L455.7 526Z" fill="#0050b7" stroke="#0050b7"></path><path d="M442.7 417L298 407L307 504Z" fill="#003872" stroke="#003872"></path><path d="M288 324L298 407L442.7 417Z" fill="#0050b7" stroke="#0050b7"></path><path d="M135.7 715L126.7 764L208.3 724Z" fill="#00101c" stroke="#00101c"></path><path d="M90.7 881L216.3 901L223.3 786Z" fill="#0048a0" stroke="#0048a0"></path><path d="M732.7 576L655 502L649 623Z" fill="#001b30" stroke="#001b30"></path><path d="M649 623L655 502L565.3 491Z" fill="#002545" stroke="#002545"></path><path d="M565.3 491L656 439L493.3 401Z" fill="#0050b7" stroke="#0050b7"></path><path d="M133.7 468L98.7 561L210.3 607Z" fill="#005fe7" stroke="#005fe7"></path><path d="M135.7 715L0 713L126.7 764Z" fill="#002545" stroke="#002545"></path><path d="M523.3 1010L508.3 893L441.7 907Z" fill="#00101c" stroke="#00101c"></path><path d="M508.3 893L609 928L533.3 799Z" fill="#0066ff" stroke="#0066ff"></path><path d="M640 763L724.7 811L671 718Z" fill="#003872" stroke="#003872"></path><path d="M298 407L213.3 398L224.3 463Z" fill="#0066ff" stroke="#0066ff"></path><path d="M224.3 463L133.7 468L210.3 607Z" fill="#002545" stroke="#002545"></path><path d="M288 324L213.3 398L298 407Z" fill="#00101c" stroke="#00101c"></path><path d="M756.7 677L732.7 576L649 623Z" fill="#002e5c" stroke="#002e5c"></path><path d="M756.7 677L649 623L671 718Z" fill="#0050b7" stroke="#0050b7"></path><path d="M213.3 398L133.7 468L224.3 463Z" fill="#0050b7" stroke="#0050b7"></path><path d="M655 502L656 439L565.3 491Z" fill="#002545" stroke="#002545"></path><path d="M737.7 475L656 439L655 502Z" fill="#003872" stroke="#003872"></path><path d="M609 928L724.7 811L640 763Z" fill="#004089" stroke="#004089"></path><path d="M724.7 811L756.7 677L671 718Z" fill="#00101c" stroke="#00101c"></path><path d="M299 1030L430.7 1025L327 935Z" fill="#002545" stroke="#002545"></path><path d="M327 935L430.7 1025L441.7 907Z" fill="#004089" stroke="#004089"></path><path d="M430.7 1025L523.3 1010L441.7 907Z" fill="#0050b7" stroke="#0050b7"></path><path d="M656 439L500.3 320L493.3 401Z" fill="#003872" stroke="#003872"></path><path d="M493.3 401L500.3 320L442.7 417Z" fill="#001b30" stroke="#001b30"></path><path d="M452.7 267L288 324L442.7 417Z" fill="#002545" stroke="#002545"></path><path d="M213.3 398L67.7 405L133.7 468Z" fill="#0048a0" stroke="#0048a0"></path><path d="M187.3 1007L299 1030L216.3 901Z" fill="#0066ff" stroke="#0066ff"></path><path d="M216.3 901L299 1030L327 935Z" fill="#005fe7" stroke="#005fe7"></path><path d="M0 813L90.7 881L126.7 764Z" fill="#00101c" stroke="#00101c"></path><path d="M126.7 764L90.7 881L223.3 786Z" fill="#004089" stroke="#004089"></path><path d="M852.3 472L737.7 475L732.7 576Z" fill="#0066ff" stroke="#0066ff"></path><path d="M732.7 576L737.7 475L655 502Z" fill="#0048a0" stroke="#0048a0"></path><path d="M656 439L661 288L500.3 320Z" fill="#002545" stroke="#002545"></path><path d="M90.7 881L187.3 1007L216.3 901Z" fill="#0050b7" stroke="#0050b7"></path><path d="M523.3 1010L661 987L609 928Z" fill="#0058cf" stroke="#0058cf"></path><path d="M609 928L751.7 908L724.7 811Z" fill="#0066ff" stroke="#0066ff"></path><path d="M508.3 212L452.7 267L500.3 320Z" fill="#0066ff" stroke="#0066ff"></path><path d="M500.3 320L452.7 267L442.7 417Z" fill="#004089" stroke="#004089"></path><path d="M0 605L135.7 715L98.7 561Z" fill="#0048a0" stroke="#0048a0"></path><path d="M0 605L0 713L135.7 715Z" fill="#0048a0" stroke="#0048a0"></path><path d="M0 511L0 605L98.7 561Z" fill="#0048a0" stroke="#0048a0"></path><path d="M661 987L751.7 908L609 928Z" fill="#004089" stroke="#004089"></path><path d="M724.7 811L828.3 707L756.7 677Z" fill="#002e5c" stroke="#002e5c"></path><path d="M837.3 785L828.3 707L724.7 811Z" fill="#0066ff" stroke="#0066ff"></path><path d="M756.7 677L868.3 567L732.7 576Z" fill="#003872" stroke="#003872"></path><path d="M0 713L0 813L126.7 764Z" fill="#0050b7" stroke="#0050b7"></path><path d="M90.7 881L135.7 1024L187.3 1007Z" fill="#004089" stroke="#004089"></path><path d="M451.7 1121L514.3 1088L430.7 1025Z" fill="#002e5c" stroke="#002e5c"></path><path d="M430.7 1025L514.3 1088L523.3 1010Z" fill="#002e5c" stroke="#002e5c"></path><path d="M523.3 1010L615 1067L661 987Z" fill="#002545" stroke="#002545"></path><path d="M451.7 1121L430.7 1025L326 1134Z" fill="#0050b7" stroke="#0050b7"></path><path d="M189.3 296L67.7 405L213.3 398Z" fill="#00101c" stroke="#00101c"></path><path d="M133.7 468L0 511L98.7 561Z" fill="#005fe7" stroke="#005fe7"></path><path d="M208.3 220L189.3 296L288 324Z" fill="#0058cf" stroke="#0058cf"></path><path d="M288 324L189.3 296L213.3 398Z" fill="#001b30" stroke="#001b30"></path><path d="M67.7 405L0 511L133.7 468Z" fill="#001b30" stroke="#001b30"></path><path d="M0 939L135.7 1024L90.7 881Z" fill="#002545" stroke="#002545"></path><path d="M187.3 1007L250.3 1095L299 1030Z" fill="#003872" stroke="#003872"></path><path d="M751.7 908L837.3 785L724.7 811Z" fill="#001b30" stroke="#001b30"></path><path d="M514.3 1088L615 1067L523.3 1010Z" fill="#005fe7" stroke="#005fe7"></path><path d="M661 987L723.7 1010L751.7 908Z" fill="#001b30" stroke="#001b30"></path><path d="M135.7 1024L250.3 1095L187.3 1007Z" fill="#003872" stroke="#003872"></path><path d="M326 1134L430.7 1025L299 1030Z" fill="#0058cf" stroke="#0058cf"></path><path d="M676 1210L745.7 1099L615 1067Z" fill="#001b30" stroke="#001b30"></path><path d="M709.7 294L661 288L656 439Z" fill="#0058cf" stroke="#0058cf"></path><path d="M852.3 472L770.7 387L737.7 475Z" fill="#003872" stroke="#003872"></path><path d="M737.7 475L770.7 387L656 439Z" fill="#002e5c" stroke="#002e5c"></path><path d="M615 1067L723.7 1010L661 987Z" fill="#002545" stroke="#002545"></path><path d="M751.7 908L873.3 924L837.3 785Z" fill="#002545" stroke="#002545"></path><path d="M452.7 267L321 214L288 324Z" fill="#004089" stroke="#004089"></path><path d="M433.7 201L321 214L452.7 267Z" fill="#0066ff" stroke="#0066ff"></path><path d="M250.3 1095L326 1134L299 1030Z" fill="#004089" stroke="#004089"></path><path d="M661 288L508.3 212L500.3 320Z" fill="#0050b7" stroke="#0050b7"></path><path d="M508.3 212L433.7 201L452.7 267Z" fill="#002e5c" stroke="#002e5c"></path><path d="M0 277L0 432L67.7 405Z" fill="#0048a0" stroke="#0048a0"></path><path d="M67.7 405L0 432L0 511Z" fill="#002e5c" stroke="#002e5c"></path><path d="M828.3 707L868.3 567L756.7 677Z" fill="#0048a0" stroke="#0048a0"></path><path d="M960 622L868.3 567L828.3 707Z" fill="#0048a0" stroke="#0048a0"></path><path d="M770.7 387L709.7 294L656 439Z" fill="#005fe7" stroke="#005fe7"></path><path d="M661 288L624 171L508.3 212Z" fill="#001b30" stroke="#001b30"></path><path d="M0 813L0 939L90.7 881Z" fill="#00101c" stroke="#00101c"></path><path d="M868.3 567L852.3 472L732.7 576Z" fill="#0048a0" stroke="#0048a0"></path><path d="M770.7 387L837.3 273L709.7 294Z" fill="#004089" stroke="#004089"></path><path d="M321 214L208.3 220L288 324Z" fill="#00101c" stroke="#00101c"></path><path d="M189.3 296L67.7 291L67.7 405Z" fill="#0048a0" stroke="#0048a0"></path><path d="M117.7 209L208.3 220L128.7 118Z" fill="#0066ff" stroke="#0066ff"></path><path d="M117.7 209L67.7 291L189.3 296Z" fill="#0058cf" stroke="#0058cf"></path><path d="M215.3 1186L299 1171L250.3 1095Z" fill="#005fe7" stroke="#005fe7"></path><path d="M250.3 1095L299 1171L326 1134Z" fill="#005fe7" stroke="#005fe7"></path><path d="M326 1134L438.7 1224L451.7 1121Z" fill="#0058cf" stroke="#0058cf"></path><path d="M103.7 1088L250.3 1095L135.7 1024Z" fill="#0058cf" stroke="#0058cf"></path><path d="M0 1032L103.7 1088L135.7 1024Z" fill="#002e5c" stroke="#002e5c"></path><path d="M844.3 1007L873.3 924L751.7 908Z" fill="#003872" stroke="#003872"></path><path d="M960 727L960 622L828.3 707Z" fill="#0058cf" stroke="#0058cf"></path><path d="M0 939L0 1032L135.7 1024Z" fill="#005fe7" stroke="#005fe7"></path><path d="M208.3 220L117.7 209L189.3 296Z" fill="#004089" stroke="#004089"></path><path d="M247.3 134L208.3 220L321 214Z" fill="#004089" stroke="#004089"></path><path d="M773.7 165L624 171L709.7 294Z" fill="#0050b7" stroke="#0050b7"></path><path d="M709.7 294L624 171L661 288Z" fill="#0066ff" stroke="#0066ff"></path><path d="M508.3 212L543.3 131L433.7 201Z" fill="#002545" stroke="#002545"></path><path d="M352 68L247.3 134L321 214Z" fill="#005fe7" stroke="#005fe7"></path><path d="M960 490L872.3 387L852.3 472Z" fill="#003872" stroke="#003872"></path><path d="M852.3 472L872.3 387L770.7 387Z" fill="#0048a0" stroke="#0048a0"></path><path d="M960 490L852.3 472L868.3 567Z" fill="#0048a0" stroke="#0048a0"></path><path d="M615 1067L745.7 1099L723.7 1010Z" fill="#0048a0" stroke="#0048a0"></path><path d="M723.7 1010L844.3 1007L751.7 908Z" fill="#0050b7" stroke="#0050b7"></path><path d="M531.3 1216L615 1067L514.3 1088Z" fill="#0048a0" stroke="#0048a0"></path><path d="M531.3 1216L514.3 1088L451.7 1121Z" fill="#001b30" stroke="#001b30"></path><path d="M131.7 1181L215.3 1186L250.3 1095Z" fill="#004089" stroke="#004089"></path><path d="M299 1171L438.7 1224L326 1134Z" fill="#0066ff" stroke="#0066ff"></path><path d="M131.7 1181L250.3 1095L103.7 1088Z" fill="#004089" stroke="#004089"></path><path d="M745.7 1099L844.3 1007L723.7 1010Z" fill="#0050b7" stroke="#0050b7"></path><path d="M318 1265L438.7 1224L299 1171Z" fill="#003872" stroke="#003872"></path><path d="M960 727L828.3 707L837.3 785Z" fill="#0050b7" stroke="#0050b7"></path><path d="M960 767L960 727L837.3 785Z" fill="#0048a0" stroke="#0048a0"></path><path d="M960 767L837.3 785L960 899Z" fill="#0050b7" stroke="#0050b7"></path><path d="M624 171L543.3 131L508.3 212Z" fill="#005fe7" stroke="#005fe7"></path><path d="M438.7 1224L531.3 1216L451.7 1121Z" fill="#004089" stroke="#004089"></path><path d="M399.7 109L321 214L433.7 201Z" fill="#0058cf" stroke="#0058cf"></path><path d="M960 899L837.3 785L873.3 924Z" fill="#0058cf" stroke="#0058cf"></path><path d="M543.3 131L399.7 109L433.7 201Z" fill="#00101c" stroke="#00101c"></path><path d="M0 205L67.7 291L117.7 209Z" fill="#0066ff" stroke="#0066ff"></path><path d="M0 205L0 277L67.7 291Z" fill="#0048a0" stroke="#0048a0"></path><path d="M67.7 291L0 277L67.7 405Z" fill="#0066ff" stroke="#0066ff"></path><path d="M0 1195L131.7 1181L103.7 1088Z" fill="#003872" stroke="#003872"></path><path d="M233.3 1281L318 1265L299 1171Z" fill="#0048a0" stroke="#0048a0"></path><path d="M960 622L960 490L868.3 567Z" fill="#0050b7" stroke="#0050b7"></path><path d="M872.3 387L837.3 273L770.7 387Z" fill="#0066ff" stroke="#0066ff"></path><path d="M624 171L600 111L543.3 131Z" fill="#001b30" stroke="#001b30"></path><path d="M880.3 238L837.3 273L960 293Z" fill="#0050b7" stroke="#0050b7"></path><path d="M739.7 116L600 111L624 171Z" fill="#005fe7" stroke="#005fe7"></path><path d="M386.7 0L352 68L399.7 109Z" fill="#003872" stroke="#003872"></path><path d="M0 1032L0 1106L103.7 1088Z" fill="#002e5c" stroke="#002e5c"></path><path d="M960 982L960 899L873.3 924Z" fill="#005fe7" stroke="#005fe7"></path><path d="M233.3 1281L299 1171L215.3 1186Z" fill="#002545" stroke="#002545"></path><path d="M438.7 1224L543.3 1264L531.3 1216Z" fill="#001b30" stroke="#001b30"></path><path d="M531.3 1216L676 1210L615 1067Z" fill="#0050b7" stroke="#0050b7"></path><path d="M745.7 1099L873.3 1076L844.3 1007Z" fill="#005fe7" stroke="#005fe7"></path><path d="M844.3 1007L960 982L873.3 924Z" fill="#0058cf" stroke="#0058cf"></path><path d="M641 1277L676 1210L531.3 1216Z" fill="#004089" stroke="#004089"></path><path d="M399.7 109L352 68L321 214Z" fill="#00101c" stroke="#00101c"></path><path d="M0 111L0 205L117.7 209Z" fill="#003872" stroke="#003872"></path><path d="M386.7 0L399.7 109L555.3 0Z" fill="#001b30" stroke="#001b30"></path><path d="M423.7 1318L543.3 1264L438.7 1224Z" fill="#0066ff" stroke="#0066ff"></path><path d="M741.7 1284L722.7 1201L676 1210Z" fill="#0050b7" stroke="#0050b7"></path><path d="M676 1210L722.7 1201L745.7 1099Z" fill="#0058cf" stroke="#0058cf"></path><path d="M871.3 1232L873.3 1076L745.7 1099Z" fill="#0058cf" stroke="#0058cf"></path><path d="M128.7 118L208.3 220L247.3 134Z" fill="#0058cf" stroke="#0058cf"></path><path d="M200.3 0L128.7 118L247.3 134Z" fill="#0048a0" stroke="#0048a0"></path><path d="M960 490L960 387L872.3 387Z" fill="#004089" stroke="#004089"></path><path d="M837.3 273L773.7 165L709.7 294Z" fill="#005fe7" stroke="#005fe7"></path><path d="M880.3 238L773.7 165L837.3 273Z" fill="#002545" stroke="#002545"></path><path d="M137.7 1302L233.3 1281L215.3 1186Z" fill="#003872" stroke="#003872"></path><path d="M318 1265L423.7 1318L438.7 1224Z" fill="#005fe7" stroke="#005fe7"></path><path d="M137.7 1302L215.3 1186L131.7 1181Z" fill="#0066ff" stroke="#0066ff"></path><path d="M873.3 1076L960 982L844.3 1007Z" fill="#002e5c" stroke="#002e5c"></path><path d="M960 293L837.3 273L872.3 387Z" fill="#0058cf" stroke="#0058cf"></path><path d="M396.7 1400L423.7 1318L328 1400Z" fill="#002545" stroke="#002545"></path><path d="M543.3 1264L641 1277L531.3 1216Z" fill="#0048a0" stroke="#0048a0"></path><path d="M818.3 83L739.7 116L773.7 165Z" fill="#001b30" stroke="#001b30"></path><path d="M773.7 165L739.7 116L624 171Z" fill="#0058cf" stroke="#0058cf"></path><path d="M555.3 0L399.7 109L543.3 131Z" fill="#002545" stroke="#002545"></path><path d="M960 1228L960 1065L873.3 1076Z" fill="#0048a0" stroke="#0048a0"></path><path d="M622 1400L641 1277L543.3 1264Z" fill="#0050b7" stroke="#0050b7"></path><path d="M0 1106L0 1195L103.7 1088Z" fill="#0050b7" stroke="#0050b7"></path><path d="M960 387L960 293L872.3 387Z" fill="#005fe7" stroke="#005fe7"></path><path d="M880.3 238L818.3 83L773.7 165Z" fill="#00101c" stroke="#00101c"></path><path d="M555.3 0L543.3 131L600 111Z" fill="#0066ff" stroke="#0066ff"></path><path d="M352 68L307 0L247.3 134Z" fill="#0050b7" stroke="#0050b7"></path><path d="M386.7 0L307 0L352 68Z" fill="#0066ff" stroke="#0066ff"></path><path d="M873.3 1076L960 1065L960 982Z" fill="#0048a0" stroke="#0048a0"></path><path d="M871.3 1232L745.7 1099L722.7 1201Z" fill="#00101c" stroke="#00101c"></path><path d="M0 1274L137.7 1302L131.7 1181Z" fill="#002545" stroke="#002545"></path><path d="M328 1400L423.7 1318L318 1265Z" fill="#0058cf" stroke="#0058cf"></path><path d="M672 0L555.3 0L600 111Z" fill="#0048a0" stroke="#0048a0"></path><path d="M128.7 118L0 111L117.7 209Z" fill="#003872" stroke="#003872"></path><path d="M109.7 0L0 111L128.7 118Z" fill="#0066ff" stroke="#0066ff"></path><path d="M724.7 1400L741.7 1284L641 1277Z" fill="#00101c" stroke="#00101c"></path><path d="M641 1277L741.7 1284L676 1210Z" fill="#001b30" stroke="#001b30"></path><path d="M307 0L200.3 0L247.3 134Z" fill="#005fe7" stroke="#005fe7"></path><path d="M960 126L818.3 83L880.3 238Z" fill="#0066ff" stroke="#0066ff"></path><path d="M739.7 116L672 0L600 111Z" fill="#00101c" stroke="#00101c"></path><path d="M960 293L960 209L880.3 238Z" fill="#004089" stroke="#004089"></path><path d="M773.7 0L672 0L739.7 116Z" fill="#0058cf" stroke="#0058cf"></path><path d="M0 1195L0 1274L131.7 1181Z" fill="#001b30" stroke="#001b30"></path><path d="M741.7 1284L871.3 1232L722.7 1201Z" fill="#002e5c" stroke="#002e5c"></path><path d="M328 1400L318 1265L233.3 1281Z" fill="#0058cf" stroke="#0058cf"></path><path d="M423.7 1318L530.3 1400L543.3 1264Z" fill="#002e5c" stroke="#002e5c"></path><path d="M328 1400L233.3 1281L213.3 1400Z" fill="#0058cf" stroke="#0058cf"></path><path d="M213.3 1400L233.3 1281L137.7 1302Z" fill="#003872" stroke="#003872"></path><path d="M200.3 0L109.7 0L128.7 118Z" fill="#004089" stroke="#004089"></path><path d="M396.7 1400L530.3 1400L423.7 1318Z" fill="#004089" stroke="#004089"></path><path d="M960 1293L960 1228L871.3 1232Z" fill="#005fe7" stroke="#005fe7"></path><path d="M94.7 1400L213.3 1400L137.7 1302Z" fill="#0058cf" stroke="#0058cf"></path><path d="M530.3 1400L622 1400L543.3 1264Z" fill="#0058cf" stroke="#0058cf"></path><path d="M867.3 0L773.7 0L818.3 83Z" fill="#004089" stroke="#004089"></path><path d="M818.3 83L773.7 0L739.7 116Z" fill="#0048a0" stroke="#0048a0"></path><path d="M960 209L960 126L880.3 238Z" fill="#005fe7" stroke="#005fe7"></path><path d="M109.7 0L0 0L0 111Z" fill="#003872" stroke="#003872"></path><path d="M882.3 1318L871.3 1232L741.7 1284Z" fill="#0066ff" stroke="#0066ff"></path><path d="M871.3 1232L960 1228L873.3 1076Z" fill="#004089" stroke="#004089"></path><path d="M0 1274L94.7 1400L137.7 1302Z" fill="#0058cf" stroke="#0058cf"></path><path d="M622 1400L724.7 1400L641 1277Z" fill="#003872" stroke="#003872"></path><path d="M829.3 1400L882.3 1318L741.7 1284Z" fill="#005fe7" stroke="#005fe7"></path><path d="M960 126L867.3 0L818.3 83Z" fill="#0048a0" stroke="#0048a0"></path><path d="M960 1400L960 1293L882.3 1318Z" fill="#005fe7" stroke="#005fe7"></path><path d="M882.3 1318L960 1293L871.3 1232Z" fill="#002e5c" stroke="#002e5c"></path><path d="M0 1274L0 1400L94.7 1400Z" fill="#005fe7" stroke="#005fe7"></path><path d="M724.7 1400L829.3 1400L741.7 1284Z" fill="#002545" stroke="#002545"></path><path d="M960 126L960 0L867.3 0Z" fill="#0048a0" stroke="#0048a0"></path><path d="M829.3 1400L960 1400L882.3 1318Z" fill="#00101c" stroke="#00101c"></path></g></svg>