<svg id="visual" viewBox="0 0 960 540" width="960" height="540" xmlns="http://www.w3.org/2000/svg" xmlns:xlink="http://www.w3.org/1999/xlink" version="1.1"><rect width="960" height="540" fill="#2B4865"></rect><g><g transform="translate(668 386)"><path d="M0 -89.8L70.2 -56L87.6 20L39 80.9L-39 80.9L-87.6 20L-70.2 -56Z" fill="#277BC0"></path></g><g transform="translate(473 481)"><path d="M0 -41L32.1 -25.6L40 9.1L17.8 36.9L-17.8 36.9L-40 9.1L-32.1 -25.6Z" fill="#277BC0"></path></g><g transform="translate(937 134)"><path d="M0 -62L48.5 -38.7L60.4 13.8L26.9 55.9L-26.9 55.9L-60.4 13.8L-48.5 -38.7Z" fill="#277BC0"></path></g><g transform="translate(724 183)"><path d="M0 -32L25 -20L31.2 7.1L13.9 28.8L-13.9 28.8L-31.2 7.1L-25 -20Z" fill="#277BC0"></path></g><g transform="translate(32 371)"><path d="M0 -11L8.6 -6.9L10.7 2.4L4.8 9.9L-4.8 9.9L-10.7 2.4L-8.6 -6.9Z" fill="#277BC0"></path></g><g transform="translate(125 38)"><path d="M0 -49L38.3 -30.6L47.8 10.9L21.3 44.1L-21.3 44.1L-47.8 10.9L-38.3 -30.6Z" fill="#277BC0"></path></g><g transform="translate(425 186)"><path d="M0 -12L9.4 -7.5L11.7 2.7L5.2 10.8L-5.2 10.8L-11.7 2.7L-9.4 -7.5Z" fill="#277BC0"></path></g><g transform="translate(885 349)"><path d="M0 -30L23.5 -18.7L29.2 6.7L13 27L-13 27L-29.2 6.7L-23.5 -18.7Z" fill="#277BC0"></path></g><g transform="translate(217 283)"><path d="M0 -59L46.1 -36.8L57.5 13.1L25.6 53.2L-25.6 53.2L-57.5 13.1L-46.1 -36.8Z" fill="#277BC0"></path></g><g transform="translate(358 8)"><path d="M0 -87L68 -54.2L84.8 19.4L37.7 78.4L-37.7 78.4L-84.8 19.4L-68 -54.2Z" fill="#277BC0"></path></g><g transform="translate(560 56)"><path d="M0 -75L58.6 -46.8L73.1 16.7L32.5 67.6L-32.5 67.6L-73.1 16.7L-58.6 -46.8Z" fill="#277BC0"></path></g><g transform="translate(241 489)"><path d="M0 -35L27.4 -21.8L34.1 7.8L15.2 31.5L-15.2 31.5L-34.1 7.8L-27.4 -21.8Z" fill="#277BC0"></path></g><g transform="translate(805 531)"><path d="M0 -25L19.5 -15.6L24.4 5.6L10.8 22.5L-10.8 22.5L-24.4 5.6L-19.5 -15.6Z" fill="#277BC0"></path></g><g transform="translate(788 2)"><path d="M0 -86L67.2 -53.6L83.8 19.1L37.3 77.5L-37.3 77.5L-83.8 19.1L-67.2 -53.6Z" fill="#277BC0"></path></g><g transform="translate(9 176)"><path d="M0 -88L68.8 -54.9L85.8 19.6L38.2 79.3L-38.2 79.3L-85.8 19.6L-68.8 -54.9Z" fill="#277BC0"></path></g></g></svg>